<svg width="57" height="57" viewBox="0 0 57 57" fill="none" xmlns="http://www.w3.org/2000/svg">
    <path fill-rule="evenodd" clip-rule="evenodd"
        d="M35.3241 0.687287C37.6741 1.40228 39.0146 3.91266 38.3181 6.2944L24.5741 53.2943C23.8777 55.6761 21.408 57.0272 19.058 56.3122C16.708 55.5973 15.3676 53.0869 16.0641 50.7051L29.808 3.70519C30.5045 1.32346 32.9742 -0.0277016 35.3241 0.687287Z"
        fill="url(#paint0_linear_8_6)" />
    <path
        d="M13.6896 41.5986C10.9781 41.5986 8.59734 41.0351 6.5472 39.908C4.49707 38.7478 2.89333 37.1732 1.736 35.1842C0.578667 33.1621 0 30.8583 0 28.2726C0 25.687 0.5456 23.3997 1.6368 21.4107C2.76107 19.4218 4.28214 17.8638 6.2 16.7367C8.15094 15.5765 10.3333 14.9964 12.7472 14.9964C15.1941 14.9964 17.36 15.5599 19.2448 16.687C21.1627 17.7809 22.6672 19.3389 23.7584 21.361C24.8496 23.35 25.3952 25.6538 25.3952 28.2726C25.3952 28.4384 25.3787 28.6207 25.3456 28.8196C25.3456 28.9853 25.3456 29.1676 25.3456 29.3665H2.6784V26.7312H23.4608L22.072 27.7754C22.072 25.8859 21.6587 24.2118 20.832 22.7533C20.0384 21.2616 18.9472 20.1013 17.5584 19.2726C16.1696 18.4439 14.5659 18.0295 12.7472 18.0295C10.9616 18.0295 9.35787 18.4439 7.936 19.2726C6.51414 20.1013 5.4064 21.2616 4.6128 22.7533C3.8192 24.245 3.4224 25.9522 3.4224 27.8748V28.4218C3.4224 30.4107 3.85227 32.1676 4.712 33.6925C5.6048 35.1842 6.82827 36.361 8.3824 37.2229C9.9696 38.0516 11.7717 38.466 13.7888 38.466C15.376 38.466 16.8475 38.1842 18.2032 37.6207C19.592 37.0572 20.7824 36.1953 21.7744 35.0351L23.7584 37.3223C22.6011 38.7146 21.1461 39.7754 19.3936 40.5047C17.6741 41.2339 15.7728 41.5986 13.6896 41.5986Z"
        fill="#296879" />
    <path
        d="M44.0048 41.5986C41.7563 41.5986 39.7227 41.0848 37.904 40.0571C36.0853 38.9964 34.6304 37.4881 33.5392 35.5323C32.4811 33.5433 31.952 31.1234 31.952 28.2726C31.952 25.4218 32.4811 23.0185 33.5392 21.0627C34.5973 19.0737 36.0357 17.5654 37.8544 16.5378C39.6731 15.5102 41.7232 14.9964 44.0048 14.9964C46.4848 14.9964 48.7003 15.5599 50.6512 16.687C52.6352 17.7809 54.1893 19.3389 55.3136 21.361C56.4379 23.35 57 25.6538 57 28.2726C57 30.9246 56.4379 33.245 55.3136 35.2339C54.1893 37.2229 52.6352 38.7809 50.6512 39.908C48.7003 41.0351 46.4848 41.5986 44.0048 41.5986ZM30.5632 50.9964V15.245H33.936V23.1013L33.5888 28.3223L34.0848 33.5931V50.9964H30.5632ZM43.7568 38.466C45.6085 38.466 47.2619 38.0516 48.7168 37.2229C50.1717 36.361 51.3291 35.1676 52.1888 33.6428C53.0485 32.0848 53.4784 30.2947 53.4784 28.2726C53.4784 26.2505 53.0485 24.477 52.1888 22.9522C51.3291 21.4273 50.1717 20.2339 48.7168 19.3721C47.2619 18.5102 45.6085 18.0793 43.7568 18.0793C41.9051 18.0793 40.2352 18.5102 38.7472 19.3721C37.2923 20.2339 36.1349 21.4273 35.2752 22.9522C34.4485 24.477 34.0352 26.2505 34.0352 28.2726C34.0352 30.2947 34.4485 32.0848 35.2752 33.6428C36.1349 35.1676 37.2923 36.361 38.7472 37.2229C40.2352 38.0516 41.9051 38.466 43.7568 38.466Z"
        fill="#296879" />
    <defs>
        <linearGradient id="paint0_linear_8_6" x1="25.5" y1="-7.00362" x2="17" y2="48.4964"
            gradientUnits="userSpaceOnUse">
            <stop stop-color="#8CEDC1" />
            <stop offset="1" stop-color="#E6F3F0" />
        </linearGradient>
    </defs>
</svg>